<?xml version="1.0" standalone="no"?>
<!DOCTYPE svg PUBLIC "-//W3C//DTD SVG 20010904//EN"
 "http://www.w3.org/TR/2001/REC-SVG-20010904/DTD/svg10.dtd">
<svg version="1.0" xmlns="http://www.w3.org/2000/svg"
 width="3600.000000pt" height="2400.000000pt" viewBox="0 0 3600.000000 2400.000000"
 preserveAspectRatio="xMidYMid meet">

<g transform="translate(0.000000,2400.000000) scale(0.100000,-0.100000)"
fill="#000000" stroke="none">
<path d="M18003 22656 c-31 -97 -43 -180 -58 -386 -3 -47 -12 -139 -20 -205
-8 -66 -17 -177 -20 -246 l-7 -126 -59 -7 c-33 -3 -103 -17 -157 -30 -53 -13
-142 -27 -197 -31 -55 -4 -165 -20 -245 -35 -118 -23 -158 -35 -213 -66 -37
-21 -66 -41 -65 -45 2 -4 50 -32 109 -62 84 -44 132 -62 240 -87 122 -29 227
-55 397 -98 35 -9 61 -21 58 -26 -3 -6 -30 -69 -62 -141 -31 -71 -76 -193
-101 -270 -24 -77 -62 -185 -84 -240 -23 -55 -46 -112 -52 -127 -6 -15 -8 -30
-5 -33 8 -8 185 72 223 100 63 47 275 139 275 119 0 -3 -20 -34 -44 -69 -131
-192 -254 -501 -352 -883 -57 -225 -72 -372 -55 -550 29 -295 133 -724 223
-922 19 -41 66 -131 105 -200 160 -285 188 -357 263 -680 59 -255 69 -353 50
-511 -14 -124 -44 -273 -62 -311 l-13 -28 -456 0 c-490 0 -454 3 -501 -43 -1
-1 -5 -154 -8 -341 l-5 -338 -160 -33 c-876 -180 -1687 -526 -2410 -1028 -495
-344 -976 -792 -1346 -1253 -711 -886 -1168 -1936 -1323 -3039 -47 -336 -60
-526 -60 -875 0 -359 13 -546 64 -903 125 -870 442 -1715 926 -2467 245 -382
483 -677 819 -1019 529 -537 1086 -940 1750 -1266 754 -370 1476 -571 2345
-652 258 -24 850 -24 1115 0 590 54 1118 168 1645 355 473 168 987 424 1400
697 1099 726 1940 1754 2422 2960 217 544 354 1120 415 1750 24 251 24 838 -1
1090 -54 569 -166 1072 -348 1575 -543 1493 -1647 2741 -3083 3481 -546 281
-1159 495 -1717 600 l-128 24 0 338 0 338 -25 24 -24 25 -371 0 -370 0 5 23
c16 75 35 198 46 302 19 188 8 313 -50 571 -100 442 -131 526 -331 894 -127
233 -176 384 -242 735 -29 157 -31 346 -5 460 68 296 196 651 269 748 13 17
15 12 26 -50 26 -141 68 -255 134 -356 35 -53 65 -97 69 -97 13 0 49 95 58
152 6 35 17 155 26 268 19 244 31 363 51 479 8 47 18 103 21 124 3 20 10 37
15 37 6 0 62 -24 127 -54 64 -30 154 -68 201 -84 47 -17 169 -71 271 -121 172
-84 279 -121 350 -121 18 0 19 2 4 38 -27 64 -79 135 -192 258 -144 158 -262
294 -274 316 -11 20 -21 15 141 75 52 19 198 84 323 144 125 60 231 109 235
109 5 0 32 15 61 34 l54 33 -74 23 c-49 15 -116 26 -199 31 -166 11 -206 16
-330 44 -58 13 -159 29 -225 35 -66 6 -135 13 -153 16 l-33 5 6 57 c14 115 80
424 124 582 17 58 35 127 41 155 14 61 23 255 13 255 -20 0 -77 -49 -173 -148
-58 -60 -132 -133 -165 -163 -76 -70 -304 -334 -363 -421 -25 -38 -46 -68 -47
-68 -2 0 -24 55 -50 123 -27 67 -59 148 -72 180 -13 32 -39 117 -59 190 -60
225 -146 415 -211 463 l-28 21 -32 -101z m78 -48 c19 -35 95 -267 125 -378 29
-112 102 -305 158 -417 18 -37 39 -85 46 -105 6 -21 15 -38 19 -38 11 0 127
122 173 182 83 110 244 294 313 358 39 35 103 98 144 140 87 88 85 102 15
-160 -76 -287 -145 -656 -130 -695 3 -8 12 -15 21 -15 9 0 27 -7 40 -16 16
-11 73 -20 172 -30 81 -7 198 -25 260 -39 62 -14 169 -29 238 -34 69 -5 128
-10 129 -12 2 -2 -74 -41 -170 -87 -156 -74 -234 -107 -471 -196 -63 -24 -73
-31 -73 -52 0 -13 10 -32 22 -42 26 -20 35 -29 176 -192 60 -69 146 -165 190
-214 45 -49 80 -91 78 -94 -3 -2 -87 37 -188 86 -101 50 -233 109 -294 131
-127 47 -336 145 -354 167 -17 19 -47 18 -59 -4 -5 -10 -14 -53 -20 -96 -6
-43 -13 -81 -15 -85 -7 -11 -44 -370 -62 -601 -8 -113 -19 -209 -24 -213 -21
-23 -99 237 -145 488 -9 50 -30 131 -45 180 -16 50 -38 134 -50 187 l-21 97
-92 -34 c-51 -18 -110 -40 -132 -49 -22 -8 -83 -27 -135 -41 -106 -29 -193
-68 -269 -120 -28 -19 -51 -33 -51 -31 0 30 153 456 204 566 36 80 66 153 66
162 0 25 -31 38 -89 38 -27 0 -85 11 -128 24 -43 14 -150 41 -238 60 -182 41
-347 91 -325 99 41 14 309 58 410 66 63 6 162 21 220 35 58 14 131 28 163 32
79 9 80 12 102 259 30 349 66 731 70 743 6 17 13 15 26 -10z m-1755 -8228 c58
-39 154 -97 214 -129 97 -52 225 -145 273 -198 17 -20 17 -21 -6 -36 -13 -8
-72 -40 -131 -71 -123 -65 -337 -192 -411 -245 -122 -88 -329 -266 -500 -430
-72 -70 -160 -153 -196 -186 -36 -33 -83 -83 -106 -112 -23 -29 -72 -79 -109
-111 -76 -66 -284 -285 -329 -347 -16 -22 -57 -74 -90 -115 -56 -69 -94 -125
-287 -428 -36 -56 -79 -133 -94 -170 -16 -37 -51 -110 -78 -162 -27 -52 -62
-120 -78 -150 -15 -30 -52 -118 -82 -195 -30 -77 -81 -204 -115 -281 -34 -78
-72 -177 -85 -220 -14 -44 -48 -155 -76 -249 -82 -267 -89 -298 -121 -510 -26
-178 -29 -227 -29 -440 0 -238 0 -242 39 -445 21 -113 49 -243 61 -290 12 -47
28 -112 36 -145 15 -67 17 -71 35 -135 6 -25 13 -52 15 -60 2 -8 10 -44 19
-80 8 -36 17 -76 20 -90 2 -14 6 -34 9 -45 2 -11 11 -51 20 -90 20 -94 47
-174 92 -270 20 -44 56 -138 79 -210 61 -184 129 -349 179 -430 24 -38 59
-100 79 -136 36 -65 54 -88 172 -225 65 -76 101 -119 193 -234 33 -41 97 -111
143 -156 46 -44 123 -120 170 -170 117 -122 136 -139 364 -316 110 -85 211
-166 225 -180 14 -14 102 -84 195 -156 192 -149 245 -198 245 -227 -1 -23 -33
-65 -50 -65 -39 0 -348 165 -494 263 -89 59 -197 145 -411 323 -60 50 -164
132 -230 182 -198 150 -397 314 -450 372 -27 30 -70 72 -95 95 -110 98 -289
285 -323 336 -21 31 -55 76 -76 100 -21 24 -46 61 -56 82 -9 20 -40 64 -69 96
-68 78 -233 315 -273 394 -107 205 -153 337 -237 682 -15 61 -43 157 -61 215
-35 110 -73 267 -106 429 -10 53 -26 125 -34 161 -32 139 -62 329 -70 450 -4
47 -8 104 -10 127 -5 43 11 385 20 458 22 172 46 302 70 385 50 173 66 233 75
290 15 84 82 329 121 439 16 47 43 122 58 166 15 44 39 103 53 130 14 28 31
67 38 88 27 83 224 488 265 542 29 39 66 105 136 242 32 62 86 150 121 197 35
47 99 138 143 203 209 306 330 451 584 701 410 404 621 567 946 732 311 158
313 159 461 60z"/>
<path d="M16202 5488 c5 -15 28 -18 29 -3 0 6 -7 12 -17 13 -10 3 -15 -1 -12
-10z"/>
</g>
</svg>
