<?xml version="1.0" standalone="no"?>
<!DOCTYPE svg PUBLIC "-//W3C//DTD SVG 20010904//EN"
 "http://www.w3.org/TR/2001/REC-SVG-20010904/DTD/svg10.dtd">
<svg version="1.0" xmlns="http://www.w3.org/2000/svg"
 width="3600.000000pt" height="2400.000000pt" viewBox="0 0 3600.000000 2400.000000"
 preserveAspectRatio="xMidYMid meet">

<g transform="translate(0.000000,2400.000000) scale(0.100000,-0.100000)"
fill="#000000" stroke="none">
<path d="M22620 21796 c-128 -25 -246 -81 -348 -165 -111 -93 -289 -397 -326
-556 -9 -38 -22 -140 -31 -225 -15 -158 -27 -230 -70 -400 -13 -52 -27 -116
-30 -143 -4 -26 -11 -49 -15 -52 -4 -3 -27 24 -50 60 -72 110 -163 187 -304
255 -188 92 -230 94 -417 19 -83 -33 -446 -213 -462 -228 -5 -5 -50 33 -100
83 -51 51 -122 114 -159 140 -83 59 -348 183 -419 196 -28 6 -107 10 -174 10
-205 0 -364 -40 -580 -145 -71 -35 -153 -83 -182 -107 -219 -183 -290 -249
-345 -319 -167 -213 -198 -255 -259 -356 -358 -585 -400 -645 -526 -740 -101
-77 -141 -97 -296 -148 l-127 -42 59 -22 c68 -25 140 -76 262 -188 106 -96
146 -118 329 -181 80 -28 170 -61 201 -75 175 -79 377 -126 547 -128 116 -1
145 -14 140 -61 -3 -27 -17 -41 -108 -104 -148 -104 -272 -217 -605 -550 -340
-341 -373 -379 -476 -533 -42 -64 -103 -151 -136 -194 -84 -110 -174 -288
-243 -484 -65 -181 -63 -176 -167 -368 -190 -350 -314 -550 -406 -654 -157
-178 -198 -222 -272 -296 -92 -91 -150 -139 -285 -235 -176 -126 -306 -179
-585 -240 -77 -16 -192 -47 -255 -69 -63 -21 -167 -51 -230 -65 -63 -15 -167
-40 -230 -57 -63 -17 -182 -49 -265 -70 -191 -49 -347 -126 -635 -311 -78 -50
-267 -158 -277 -158 -2 0 -30 -17 -61 -38 -48 -33 -206 -128 -277 -168 -46
-26 -207 -126 -223 -139 -26 -21 -94 -71 -232 -170 -140 -100 -383 -333 -443
-425 -20 -30 -53 -71 -73 -90 -20 -19 -51 -65 -70 -102 -19 -37 -60 -108 -91
-157 -32 -49 -78 -125 -103 -168 -24 -43 -81 -136 -125 -208 -45 -71 -101
-166 -125 -210 -70 -129 -193 -323 -275 -436 -154 -211 -266 -388 -355 -564
-51 -99 -119 -227 -150 -285 -89 -162 -138 -264 -181 -373 -21 -56 -39 -105
-39 -110 0 -4 -32 -83 -71 -175 -39 -92 -84 -198 -99 -237 -15 -38 -44 -105
-64 -148 -114 -246 -169 -419 -206 -657 -19 -118 -23 -281 -10 -367 4 -26 11
-79 14 -118 4 -38 9 -88 11 -110 2 -22 7 -83 10 -135 6 -105 22 -227 35 -280
5 -19 12 -51 15 -70 3 -19 8 -42 10 -50 7 -25 28 -209 40 -355 3 -38 7 -81 10
-95 2 -14 7 -68 10 -120 11 -182 25 -317 39 -385 33 -159 47 -232 56 -295 18
-117 39 -223 50 -245 5 -11 30 -76 54 -145 24 -69 62 -159 85 -200 23 -41 64
-122 93 -180 49 -99 192 -329 235 -377 11 -12 58 -64 105 -115 102 -110 124
-137 168 -203 19 -27 36 -52 39 -55 4 -3 19 -22 34 -42 38 -51 199 -213 266
-269 143 -116 195 -168 244 -239 17 -25 33 -47 37 -50 3 -3 19 -23 35 -45 17
-22 32 -42 35 -45 3 -3 18 -23 35 -45 16 -22 111 -121 210 -220 170 -169 287
-295 324 -347 8 -13 28 -36 42 -53 40 -44 60 -68 94 -111 36 -46 151 -169 218
-233 27 -25 60 -56 73 -68 12 -13 27 -23 33 -23 5 0 11 -3 13 -7 2 -5 39 -35
83 -68 44 -33 82 -62 85 -65 3 -3 28 -24 55 -45 28 -22 57 -48 66 -57 9 -10
21 -18 27 -18 6 0 12 -3 14 -8 5 -12 204 -152 217 -152 6 0 11 -4 11 -10 0 -5
7 -10 15 -10 8 0 15 -4 15 -10 0 -5 7 -10 15 -10 8 0 15 -4 15 -10 0 -5 7 -10
15 -10 8 0 15 -4 15 -10 0 -5 7 -10 15 -10 8 0 15 -4 15 -10 0 -5 7 -10 15
-10 8 0 15 -4 15 -10 0 -5 5 -10 11 -10 6 0 16 -6 23 -12 7 -7 28 -24 46 -38
19 -14 45 -36 60 -50 14 -14 48 -43 75 -65 28 -22 52 -42 55 -45 4 -4 39 -24
95 -54 11 -6 22 -13 25 -16 3 -3 32 -18 65 -34 130 -61 150 -71 155 -76 3 -3
37 -21 75 -40 39 -19 71 -38 73 -42 2 -5 9 -8 16 -8 7 0 35 -12 62 -26 27 -15
83 -40 124 -56 41 -16 107 -45 145 -63 39 -18 102 -47 140 -65 39 -18 88 -41
110 -52 123 -60 187 -73 460 -93 275 -21 361 -32 502 -66 144 -34 198 -36 653
-14 386 18 383 17 690 70 47 8 186 28 310 45 452 61 588 98 873 241 110 55
300 171 327 199 3 3 28 23 55 45 43 34 77 63 129 110 29 26 85 72 116 95 18
14 39 31 46 38 7 6 17 12 22 12 6 0 12 3 14 8 2 4 41 35 88 70 128 95 135 101
315 267 44 41 96 88 115 106 19 17 133 95 252 174 253 167 272 183 397 324 35
40 102 109 149 154 142 137 226 221 251 252 14 16 98 142 188 279 146 222 186
292 246 426 8 19 52 116 97 215 45 99 89 198 97 220 16 45 75 256 127 455 36
137 90 283 166 445 23 50 49 108 57 130 47 131 100 370 133 598 12 78 23 151
26 162 2 11 15 118 29 238 14 121 29 235 34 255 5 21 12 91 15 157 11 202 16
285 27 400 14 142 20 772 9 895 -5 52 -12 156 -15 230 -7 166 -20 293 -39 385
-27 135 -116 471 -146 552 -16 46 -48 174 -71 285 -22 112 -42 205 -44 208
-12 19 -77 265 -90 339 -18 102 -62 248 -130 431 -55 148 -81 230 -90 285 -9
54 -62 267 -75 300 -17 45 -39 213 -45 350 -3 72 -13 171 -21 220 -27 155 -31
192 -35 323 -10 304 -2 430 36 612 8 36 21 119 29 185 36 266 48 337 87 480
45 170 115 334 231 548 93 171 119 233 143 337 51 221 147 548 192 648 23 52
108 301 181 532 35 110 78 286 87 356 14 104 -36 455 -91 639 -19 66 -167 365
-215 435 -46 69 -117 137 -189 182 -30 20 -73 51 -95 71 l-40 35 33 43 c48 66
174 255 217 329 21 36 63 102 92 147 52 81 166 288 235 428 19 39 64 124 101
190 184 335 339 731 388 993 12 59 36 162 54 229 18 67 36 148 40 180 4 32 24
130 45 218 71 292 74 320 71 620 -1 169 -7 285 -14 310 -15 52 -73 107 -159
150 -70 35 -72 35 -192 34 -66 0 -150 -6 -186 -13z m-2867 -1163 c-24 -2 -62
-2 -85 0 -24 2 -5 4 42 4 47 0 66 -2 43 -4z m-155 -10 c-10 -2 -26 -2 -35 0
-10 3 -2 5 17 5 19 0 27 -2 18 -5z m280 0 c-10 -2 -28 -2 -40 0 -13 2 -5 4 17
4 22 1 32 -1 23 -4z m-351 -9 c-3 -3 -12 -4 -19 -1 -8 3 -5 6 6 6 11 1 17 -2
13 -5z m423 -4 c11 -8 7 -9 -15 -4 -37 8 -45 14 -19 14 10 0 26 -5 34 -10z
m-467 -7 c-7 -2 -19 -2 -25 0 -7 3 -2 5 12 5 14 0 19 -2 13 -5z m-73 -18 c-19
-7 -42 -13 -50 -13 -8 0 1 6 20 13 19 7 42 13 50 13 8 0 -1 -6 -20 -13z m734
-64 c91 -44 166 -82 166 -85 0 -4 -330 151 -339 160 -12 12 22 -3 173 -75z
m-844 29 c-8 -5 -19 -10 -25 -10 -5 0 -3 5 5 10 8 5 20 10 25 10 6 0 3 -5 -5
-10z m-129 -55 c-107 -51 -158 -86 -291 -199 -174 -148 -301 -290 -422 -473
-63 -94 -85 -121 -48 -58 86 146 279 380 390 473 47 40 117 99 155 132 63 54
269 171 299 170 6 -1 -31 -21 -83 -45z m1219 -111 c0 -2 -9 0 -20 6 -11 6 -20
13 -20 16 0 2 9 0 20 -6 11 -6 20 -13 20 -16z m945 -65 c256 -78 292 -96 326
-166 21 -42 24 -62 24 -158 0 -104 -2 -115 -35 -190 -19 -44 -50 -107 -68
-140 -19 -33 -81 -154 -139 -270 -86 -171 -263 -495 -330 -603 -14 -23 -14
-23 -41 -4 -45 32 -203 90 -277 103 -88 15 -388 5 -495 -16 -105 -21 -106 -21
-73 23 79 104 242 382 286 488 18 44 39 111 46 149 7 39 31 156 53 260 24 117
42 231 45 295 3 58 9 112 14 121 5 9 21 19 36 21 16 3 80 20 143 38 147 42
305 78 350 79 19 1 80 -13 135 -30z m-888 -75 c-3 -3 -12 -4 -19 -1 -8 3 -5 6
6 6 11 1 17 -2 13 -5z m157 -104 c-1 -102 -3 -111 -72 -315 -109 -323 -170
-498 -184 -525 -52 -108 -122 -213 -202 -302 -96 -108 -139 -142 -221 -180
-27 -13 -99 -48 -160 -78 -175 -89 -445 -207 -600 -262 -88 -32 -94 -32 -255
-32 -163 0 -167 1 -280 38 -129 41 -354 123 -387 140 -18 9 -11 11 49 13 50 2
105 -6 192 -26 314 -76 421 -75 627 2 111 43 358 166 455 229 38 24 92 57 119
72 58 33 193 161 237 226 17 25 50 68 74 96 23 27 77 102 119 165 43 62 81
116 85 119 8 6 80 128 80 138 1 4 21 39 45 77 70 110 85 141 105 223 11 42 29
103 40 134 11 32 20 80 20 108 l0 51 58 -3 57 -3 -1 -105z m-211 93 c-7 -2
-19 -2 -25 0 -7 3 -2 5 12 5 14 0 19 -2 13 -5z m-46 -9 c-3 -3 -12 -4 -19 -1
-8 3 -5 6 6 6 11 1 17 -2 13 -5z m-162 -69 c-148 -74 -211 -123 -469 -363
-250 -233 -558 -458 -666 -486 -14 -4 11 11 55 32 120 59 397 268 579 438 266
249 349 315 486 383 67 34 127 61 133 61 7 0 -46 -30 -118 -65z m-1801 -447
c-4 -7 -29 -47 -55 -88 -25 -41 -88 -142 -139 -225 -200 -326 -264 -398 -444
-496 l-48 -27 68 -37 c38 -21 98 -54 134 -72 36 -19 54 -31 40 -28 -14 4 -45
19 -70 33 -25 14 -78 43 -119 65 l-73 39 58 32 c94 50 145 89 217 165 72 77
87 99 227 326 141 229 202 325 207 325 2 0 1 -6 -3 -12z m-2 -224 c-42 -105
-70 -155 -142 -248 -39 -50 -114 -106 -126 -93 -2 2 18 37 45 78 27 41 74 123
106 182 31 60 64 117 73 126 10 10 30 33 47 52 44 51 43 19 -3 -97z m623 -194
c-27 -12 -43 -12 -25 0 8 5 22 9 30 9 10 0 8 -3 -5 -9z m-60 -20 c-27 -12 -43
-12 -25 0 8 5 22 9 30 9 10 0 8 -3 -5 -9z m-220 -20 c3 -5 2 -10 -4 -10 -5 0
-13 5 -16 10 -3 6 -2 10 4 10 5 0 13 -4 16 -10z m138 -7 c-7 -2 -19 -2 -25 0
-7 3 -2 5 12 5 14 0 19 -2 13 -5z m1755 -478 c111 -19 186 -60 267 -147 51
-54 65 -75 65 -99 0 -47 -28 -96 -69 -121 -57 -35 -174 -123 -196 -148 -45
-50 -163 -85 -309 -89 -17 -1 -18 -7 -12 -62 3 -34 15 -93 27 -131 11 -39 19
-72 16 -74 -10 -10 -157 60 -251 119 -154 97 -233 135 -304 143 -42 4 -62 3
-62 -4 0 -11 9 -15 65 -27 47 -10 133 -53 223 -111 92 -60 156 -94 234 -125
69 -27 112 -69 153 -150 18 -36 40 -71 49 -78 17 -14 22 -36 6 -26 -26 16 -90
-63 -90 -111 0 -9 -15 -53 -34 -98 -19 -45 -42 -110 -51 -146 -9 -36 -27 -81
-40 -101 -26 -41 -55 -138 -55 -190 0 -19 -7 -72 -16 -119 -57 -318 -96 -572
-104 -675 -14 -182 -12 -336 6 -423 16 -78 15 -253 -3 -377 -7 -50 -7 -68 -3
-135 4 -65 -10 -234 -25 -316 -9 -46 -17 -164 -19 -280 -3 -109 -9 -226 -15
-259 -13 -81 -23 -310 -26 -595 -3 -262 -11 -452 -25 -551 -6 -37 -12 -95 -15
-130 -7 -77 -23 -257 -30 -319 -3 -25 -6 -184 -7 -355 -3 -450 -27 -837 -63
-1025 -8 -41 -16 -156 -19 -255 -6 -246 -50 -475 -126 -654 -78 -183 -247
-692 -300 -899 -11 -45 -41 -142 -66 -215 -160 -467 -221 -677 -332 -1132 -8
-33 -41 -154 -73 -270 -33 -115 -59 -216 -59 -225 0 -8 -10 -33 -22 -55 -12
-22 -27 -73 -34 -114 -26 -147 -130 -497 -166 -556 -25 -44 -64 -177 -78 -271
-7 -44 -19 -95 -26 -114 -8 -19 -19 -55 -25 -79 -24 -108 -212 -542 -277 -638
-48 -72 -54 -83 -95 -174 -19 -42 -50 -94 -68 -115 -19 -22 -47 -65 -64 -98
-23 -45 -48 -73 -110 -123 -44 -35 -91 -79 -106 -98 -14 -18 -45 -50 -70 -71
-76 -64 -303 -221 -342 -238 -39 -16 -157 -103 -157 -116 0 -15 -281 -188
-317 -194 -41 -8 -233 -117 -241 -137 -5 -13 -148 -65 -287 -104 -71 -20 -160
-45 -198 -56 -37 -11 -86 -24 -110 -29 -23 -4 -73 -20 -110 -34 -84 -32 -227
-58 -310 -56 -34 1 -188 -2 -342 -5 -377 -9 -431 -9 -495 -7 -183 6 -473 5
-595 -2 -66 -4 -221 -9 -345 -12 -124 -2 -250 -9 -280 -14 -102 -20 -287 -30
-342 -19 -29 5 -73 12 -97 14 -24 2 -47 8 -50 13 -6 10 -82 34 -98 31 -4 -1
-10 0 -13 1 -3 1 -14 3 -25 4 -11 2 -24 5 -30 7 -5 2 -52 0 -103 -4 -76 -6
-97 -5 -114 8 -13 8 -18 15 -13 15 6 1 -4 7 -22 15 -33 14 -72 59 -221 254
-66 88 -115 139 -207 215 -163 138 -280 259 -380 396 -46 63 -106 138 -132
166 -187 201 -279 329 -356 494 -22 47 -64 128 -93 181 -72 128 -168 397 -184
514 -7 50 -27 167 -45 260 -46 235 -44 221 -60 431 -19 253 -43 518 -51 563
-3 20 -14 79 -24 131 -31 156 -39 210 -45 310 -7 105 -19 239 -35 370 -15 133
-12 277 10 407 41 237 88 377 243 713 14 30 29 68 32 83 4 15 11 30 17 33 5 3
1 12 -8 19 -17 12 -16 13 3 19 15 5 34 36 63 104 23 53 48 111 55 127 7 17 18
48 25 70 32 100 107 271 175 396 41 75 117 220 169 323 53 103 105 200 116
216 11 15 20 31 20 34 0 7 130 207 140 216 3 3 23 30 45 60 22 30 42 57 46 60
8 6 195 292 219 335 22 40 59 107 100 180 18 33 50 86 72 117 21 31 38 59 38
62 0 3 17 32 37 63 20 32 55 92 76 133 115 219 140 266 147 275 4 6 20 33 36
60 42 77 139 216 177 255 30 31 105 99 177 160 14 12 37 29 53 38 15 9 27 20
27 24 0 4 7 8 15 8 8 0 15 3 15 8 0 4 25 23 55 42 30 19 55 38 55 43 0 4 4 7
10 7 5 0 18 7 27 15 64 53 347 244 445 300 29 17 73 42 98 56 82 47 95 54 100
59 13 15 72 52 140 88 117 62 172 93 217 123 23 16 46 29 52 29 6 0 11 5 11
10 0 6 7 10 15 10 8 0 15 5 15 10 0 6 4 10 10 10 5 0 36 17 67 37 55 35 142
83 263 145 30 15 109 42 175 58 66 17 183 48 260 69 77 21 201 53 275 71 74
18 173 46 220 62 47 16 164 49 260 74 191 49 252 69 290 94 14 10 62 33 108
53 45 20 104 51 130 70 26 19 62 39 81 46 68 23 169 110 234 201 17 24 38 53
47 62 32 38 163 258 212 358 52 106 130 232 200 325 21 28 38 56 38 63 0 6 5
12 10 12 6 0 10 7 10 15 0 8 5 15 10 15 6 0 10 7 10 15 0 8 5 15 10 15 6 0 10
7 10 15 0 8 5 15 10 15 6 0 10 5 10 11 0 6 20 42 45 80 25 38 45 72 45 75 0 2
10 21 23 42 24 39 56 123 78 207 7 28 27 82 45 122 18 39 35 82 39 95 7 22 89
148 123 190 40 47 55 65 83 95 16 18 29 35 29 38 0 3 25 45 56 93 35 54 92
123 152 182 53 52 121 131 151 175 29 44 90 116 135 160 45 44 101 106 125
138 23 32 106 123 182 201 254 258 325 333 360 379 18 25 52 56 74 68 22 12
42 25 45 29 12 15 109 76 164 103 147 72 401 182 511 222 66 24 141 52 167 64
63 27 221 60 338 70 52 5 100 9 105 10 6 0 47 -6 93 -14z m-2608 -45 c18 -12
2 -12 -25 0 -13 6 -15 9 -5 9 8 0 22 -4 30 -9z m60 -20 c18 -12 2 -12 -25 0
-13 6 -15 9 -5 9 8 0 22 -4 30 -9z m135 -51 c5 -5 -5 -4 -23 2 -17 6 -32 13
-32 16 0 7 43 -8 55 -18z m3210 -1049 c-3 -5 -16 -15 -28 -21 -19 -9 -19 -8 3
10 28 23 34 26 25 11z m-64 -43 c-8 -11 9 -16 92 -25 56 -7 122 -13 147 -13
28 -1 36 -3 20 -7 -14 -2 -85 1 -158 8 -128 13 -132 14 -116 32 19 21 32 25
15 5z m-76 -57 c-3 -5 -21 -9 -38 -9 l-32 1 30 8 c43 11 47 11 40 0z m390 -58
c-3 -3 -11 0 -18 7 -9 10 -8 11 6 5 10 -3 15 -9 12 -12z m170 -98 c44 -31 95
-68 114 -81 19 -13 29 -23 23 -23 -6 0 -40 22 -75 49 -35 26 -90 65 -121 85
-31 21 -56 40 -56 42 0 8 34 -13 115 -72z m71 35 c4 -8 1 -8 -14 0 -12 6 -24
16 -28 22 -4 8 -1 8 14 0 12 -6 24 -16 28 -22z m35 -26 c13 -16 12 -17 -3 -4
-17 13 -22 21 -14 21 2 0 10 -8 17 -17z m154 -83 c3 -5 -1 -10 -10 -10 -9 0
-13 5 -10 10 3 6 8 10 10 10 2 0 7 -4 10 -10z m32 -77 c32 -75 32 -73 83 -308
26 -118 23 -221 -10 -326 -11 -37 -29 -108 -40 -159 -21 -97 -71 -246 -125
-370 -17 -41 -42 -109 -54 -150 -13 -41 -42 -124 -66 -185 -23 -60 -64 -195
-90 -300 -43 -177 -52 -202 -135 -370 -105 -214 -167 -362 -227 -544 -24 -74
-65 -186 -90 -250 -51 -129 -65 -175 -87 -276 -49 -231 -62 -282 -101 -400
-24 -71 -48 -157 -54 -190 -6 -33 -13 -73 -16 -90 -16 -81 -1 -560 20 -660 18
-81 33 -209 34 -290 1 -49 3 -101 5 -115 2 -14 7 -54 11 -90 4 -36 18 -102 31
-148 14 -46 26 -91 27 -100 17 -97 94 -391 107 -407 4 -5 20 -48 35 -95 15
-47 31 -89 35 -95 21 -28 83 -260 96 -358 3 -21 23 -98 45 -170 39 -132 48
-167 94 -392 14 -66 47 -192 75 -280 27 -87 57 -191 65 -230 8 -38 24 -101 35
-140 12 -38 23 -81 25 -95 2 -14 10 -68 19 -120 8 -52 17 -142 20 -200 3 -58
9 -154 13 -215 16 -233 9 -904 -12 -1090 -2 -16 -6 -93 -10 -170 -7 -170 -13
-235 -25 -300 -13 -66 -17 -100 -30 -225 -10 -103 -17 -160 -25 -210 -2 -14
-9 -54 -14 -90 -6 -36 -12 -81 -15 -100 -23 -192 -96 -513 -140 -617 -13 -32
-50 -114 -81 -181 -70 -155 -110 -273 -175 -527 -62 -243 -85 -313 -145 -441
-26 -54 -73 -159 -106 -231 -89 -201 -120 -259 -223 -415 -219 -331 -222 -335
-421 -533 -106 -104 -218 -220 -251 -258 -61 -69 -177 -162 -299 -237 -209
-129 -262 -169 -436 -331 -142 -133 -172 -158 -339 -282 -74 -56 -200 -157
-280 -225 -179 -153 -283 -224 -470 -317 -245 -122 -369 -158 -723 -205 -125
-17 -290 -44 -367 -60 -77 -16 -173 -32 -213 -34 -77 -5 -65 -2 93 23 41 7
107 21 145 31 64 18 136 28 395 60 172 21 381 69 470 107 253 110 486 247 600
353 15 14 49 43 75 65 26 22 59 50 74 63 14 13 42 35 61 50 19 15 41 32 48 39
7 7 26 20 42 30 17 9 30 21 30 25 0 4 7 8 15 8 8 0 15 5 15 10 0 6 6 10 14 10
8 0 16 3 18 8 2 4 32 30 68 57 75 58 150 126 317 285 23 22 46 40 52 40 6 0
11 4 11 8 0 9 136 108 190 138 19 10 43 27 54 36 11 10 24 18 29 18 21 0 208
141 270 203 37 38 67 71 67 75 0 3 89 94 198 202 108 107 206 206 216 220 36
46 326 489 326 499 0 5 3 11 8 13 7 3 28 43 58 113 9 22 25 58 34 80 10 22 28
63 40 90 12 28 37 82 55 120 95 203 99 214 181 530 39 151 99 343 120 384 8
14 14 29 14 33 0 4 16 41 35 82 19 41 35 80 35 86 0 5 4 10 9 10 5 0 12 12 16
27 3 15 15 45 25 68 55 121 156 670 190 1035 6 63 17 147 25 185 8 39 19 162
25 275 6 113 15 252 21 310 6 58 11 267 11 465 1 452 -21 851 -56 1017 -28
129 -119 470 -139 518 -6 14 -11 27 -12 30 -1 3 -4 12 -8 20 -11 29 -25 85
-36 145 -21 116 -41 211 -55 263 -8 28 -12 52 -10 52 3 0 2 6 -3 13 -4 6 -8
15 -9 20 -1 4 -3 10 -4 15 -1 4 -3 12 -4 17 -1 6 -8 24 -15 40 -7 17 -16 50
-21 75 -36 179 -70 330 -81 355 -7 17 -13 32 -13 35 -1 3 -5 11 -9 18 -5 6 -5
17 -2 22 3 6 2 10 -3 10 -5 0 -17 28 -27 63 -9 34 -22 68 -27 75 -6 6 -7 12
-3 12 4 0 3 6 -2 13 -6 6 -16 30 -23 52 -7 22 -15 45 -19 50 -3 6 -6 16 -7 23
-4 22 -44 181 -84 332 -21 80 -41 161 -45 180 -14 74 -32 249 -34 330 -1 47
-11 137 -22 200 -11 69 -24 215 -30 366 -14 305 -4 394 67 615 25 79 63 223
85 319 41 187 63 267 85 315 22 49 63 163 100 275 19 58 38 114 43 125 5 11
17 44 26 72 9 29 21 55 26 58 5 4 9 13 9 21 0 25 157 356 172 362 5 2 8 8 8
13 0 6 9 29 19 53 22 47 46 131 92 321 18 72 47 166 64 210 18 44 47 125 64
180 17 55 36 109 41 120 27 59 50 115 64 160 9 28 23 64 30 80 28 61 126 455
126 505 0 51 -48 268 -84 383 -18 59 -31 107 -27 107 3 0 11 -12 18 -27z
m-2415 -6997 c-14 -37 -28 -63 -30 -57 -3 10 48 134 54 128 2 -1 -9 -33 -24
-71z m-57 -188 c-4 -23 -16 -55 -26 -72 -10 -17 -19 -39 -19 -48 0 -10 -4 -18
-10 -18 -13 0 -13 6 9 70 28 83 40 110 47 110 3 0 3 -19 -1 -42z m-64 -181
c-10 -9 -11 -8 -5 6 3 10 9 15 12 12 3 -3 0 -11 -7 -18z m-872 -3091 c-6 -26
-13 -45 -16 -43 -2 3 1 26 8 51 6 26 13 45 16 43 2 -3 -1 -26 -8 -51z m-5794
-2545 c99 -97 231 -241 255 -276 12 -18 94 -114 135 -159 6 -6 23 -29 40 -51
45 -61 253 -266 320 -315 33 -25 114 -88 180 -141 154 -123 232 -180 435 -316
91 -61 206 -148 255 -192 50 -44 96 -81 103 -81 6 0 12 -4 12 -10 0 -5 5 -10
10 -10 6 0 27 -10 48 -23 20 -12 71 -38 112 -57 41 -19 77 -37 80 -40 3 -3 73
-39 155 -80 83 -41 152 -78 155 -81 3 -3 23 -12 45 -19 48 -15 83 -30 200 -85
351 -166 310 -155 655 -180 273 -20 347 -30 440 -60 41 -13 86 -26 100 -28 21
-4 20 -4 -6 -6 -17 0 -48 6 -67 14 -64 27 -265 55 -502 70 -264 18 -304 27
-485 113 -183 87 -233 109 -305 137 -87 35 -604 298 -665 339 -25 16 -54 39
-65 49 -80 76 -205 171 -355 269 -96 63 -225 155 -285 204 -61 49 -137 109
-170 134 -111 83 -220 177 -290 251 -69 72 -250 284 -290 338 -52 72 -330 361
-347 361 -5 0 -8 5 -8 10 0 21 18 8 105 -79z m3973 -2208 c-38 -2 -98 -2 -135
0 -38 2 -7 3 67 3 74 0 105 -1 68 -3z"/>
<path d="M15956 13873 c-38 -2 -78 -11 -91 -19 -20 -13 -46 -14 -152 -9 -119
6 -139 5 -278 -25 -150 -31 -238 -59 -458 -144 -150 -58 -199 -86 -366 -211
-274 -205 -436 -365 -591 -582 -148 -209 -181 -264 -226 -381 -72 -188 -248
-585 -311 -702 -62 -115 -203 -326 -251 -375 -22 -22 -56 -52 -76 -65 -20 -14
-34 -29 -32 -35 6 -17 98 -7 120 13 12 10 62 42 113 71 l92 52 142 -11 c165
-12 185 -10 299 36 47 18 109 38 138 44 29 5 72 21 95 34 23 14 87 39 142 57
55 17 141 52 190 77 50 25 124 59 165 76 140 59 290 168 468 339 90 86 167
157 171 157 5 0 37 35 72 78 34 42 100 118 144 167 216 237 245 285 263 422 7
45 23 110 37 145 14 34 28 87 32 118 7 56 55 176 95 233 13 17 53 64 90 104
109 117 123 143 124 232 0 42 3 83 5 91 4 17 -37 20 -165 13z m68 -93 c10 -78
-28 -146 -149 -265 -68 -68 -152 -230 -164 -317 -5 -35 -20 -94 -34 -133 -14
-38 -30 -104 -35 -146 -8 -61 -18 -91 -50 -145 -22 -38 -51 -80 -64 -95 -125
-136 -217 -239 -282 -316 -42 -51 -81 -93 -85 -93 -4 0 -57 -48 -117 -106
-209 -203 -324 -289 -482 -360 -42 -19 -120 -57 -172 -83 -53 -27 -136 -61
-185 -76 -49 -15 -117 -41 -149 -57 -33 -17 -114 -48 -181 -70 -111 -36 -127
-39 -215 -37 -52 2 -134 4 -182 4 -49 0 -88 4 -88 9 0 4 15 29 34 55 67 93
178 293 245 443 38 84 90 200 116 258 26 58 61 143 77 190 45 126 90 210 191
355 155 224 203 280 337 402 171 155 416 343 510 392 151 79 415 171 591 206
110 22 146 26 227 20 53 -3 126 -2 162 3 36 5 81 10 101 11 36 1 36 1 43 -49z"/>
</g>
</svg>
