<svg width="220" height="239" viewBox="0 0 220 239" fill="none" xmlns="http://www.w3.org/2000/svg">
<ellipse cx="51.5625" cy="150.036" rx="40.7589" ry="45.7099" fill="#33CC5E"/>
<ellipse cx="82.0089" cy="180.151" rx="40.7589" ry="45.7099" fill="#33CC5E"/>
<path d="M153.054 63.6775C161.88 60.1875 170.056 70.0857 166.002 79.3529L120.537 183.299C117.298 190.703 108.253 192.201 103.262 186.159L49.737 121.359C44.7467 115.318 47.0121 105.611 54.0634 102.823L153.054 63.6775Z" fill="#33CC5E"/>
<path d="M162.651 65.7208L174.957 15.9288L189.601 23.4138L162.651 65.7208Z" fill="#652A22"/>
<ellipse rx="3.4375" ry="2.68882" transform="matrix(-1 0 0 1 95.7589 141.432)" fill="#120202"/>
<ellipse rx="3.4375" ry="2.68882" transform="matrix(-1 0 0 1 82.0089 115.619)" fill="#120202"/>
<ellipse rx="3.4375" ry="2.68882" transform="matrix(-1 0 0 1 113.438 117.77)" fill="#120202"/>
<path d="M43.292 194.573L39.682 206.018L32.4358 196.872L43.292 194.573Z" fill="#652A22"/>
<path d="M213.161 47.5909C211.777 61.1207 200.016 84.0491 164.038 67.5238C165.674 62.7968 171.101 55.5745 181.949 51.1121C189.524 47.9955 199.743 46.2251 213.161 47.5909Z" fill="#2A8944"/>
<path d="M180.345 65.8394C185.296 69.1417 185.064 70.2111 184.329 70.333" stroke="black"/>
<path d="M189.275 63.6684C194.847 66.1375 194.928 67.9135 194.272 68.4929" stroke="black"/>
<path d="M198.22 59.6285C203.17 62.9308 202.938 64.0002 202.204 64.1221" stroke="black"/>
<path d="M190.816 57.2553C186.008 53.7336 186.291 52.6803 187.033 52.5938" stroke="black"/>
<path d="M182.568 61.0825C177.76 57.5608 178.043 56.5074 178.785 56.421" stroke="black"/>
<path d="M202.952 54.4417C191.271 61.2778 180.298 63.7612 176.271 64.1483" stroke="black"/>
<path d="M146.85 18.9045C157.903 22.5957 176.206 36.886 161.002 64.5169C157.193 62.2435 151.505 56.2721 148.33 46.1887C146.113 39.1466 145.121 30.0989 146.85 18.9045Z" fill="#2A8944"/>
<path d="M153.814 29.6338C157.127 39.4037 157.678 48.1921 157.54 51.3651" stroke="black"/>
<path d="M164.727 45.9145C161.379 48.9624 160.2 48.2977 160.029 47.5844" stroke="black"/>
<path d="M162.45 34.7565C159.619 36.8302 158.436 36.1328 158.199 35.5249" stroke="black"/>
<path d="M154.301 42.1416C151.47 44.2153 150.287 43.5179 150.049 42.91" stroke="black"/>
</svg>
