<svg width="193" height="250" viewBox="0 0 193 250" fill="none" xmlns="http://www.w3.org/2000/svg">
<ellipse cx="102.385" cy="196.3" rx="41.5" ry="42.5" transform="rotate(-70.8631 102.385 196.3)" fill="#866654"/>
<ellipse cx="139" cy="176.192" rx="41.5" ry="42.5" transform="rotate(-70.8631 139 176.192)" fill="#866654"/>
<path d="M60.416 73.2816C60.2926 63.4408 72.1649 58.4028 79.1566 65.3291L154.363 139.831C159.919 145.336 158.118 154.717 150.918 157.772L77.0391 189.123C69.8395 192.178 61.8411 186.955 61.743 179.134L60.416 73.2816Z" fill="#866654"/>
<path d="M68.5105 63.1722L61.1999 15.7717L77.6513 16.0904L68.5105 63.1722Z" fill="#120202"/>
<ellipse rx="3.5" ry="2.5" transform="matrix(-1 0 0 1 85.5123 133.5)" fill="#120202"/>
<ellipse rx="3.5" ry="2.5" transform="matrix(-1 0 0 1 107.512 156.5)" fill="#120202"/>
<ellipse rx="3.5" ry="2.5" transform="matrix(-1 0 0 1 75.5123 156.5)" fill="#120202"/>
<path d="M138.763 217.03L148.288 223.032L138.327 228.279L138.763 217.03Z" fill="#1F1C1B"/>
<path d="M119.935 74.7432C111.77 84.4162 89.9641 95.4774 68.0586 62.3386C71.887 59.6118 80.2139 57.103 91.7008 59.7951C99.7231 61.6752 109.287 66.0921 119.935 74.7432Z" fill="#225C33"/>
<path d="M82.7303 70.2687C85.2128 75.6233 84.4639 76.3186 83.7791 75.997" stroke="black"/>
<path d="M91.4101 73.6465C94.8488 78.7087 93.9992 80.127 93.1445 80.2034" stroke="black"/>
<path d="M101.068 75.5877C103.551 80.9424 102.802 81.6377 102.117 81.316" stroke="black"/>
<path d="M96.029 69.5624C93.781 64.1191 94.5647 63.4651 95.2376 63.8185" stroke="black"/>
<path d="M87.0703 67.8507C84.8223 62.4075 85.606 61.7535 86.2789 62.1068" stroke="black"/>
<path d="M107.755 74.2586C94.3349 72.9287 83.7646 68.6359 80.1569 66.6557" stroke="black"/>
</svg>
