<?xml version="1.0" standalone="no"?>
<!DOCTYPE svg PUBLIC "-//W3C//DTD SVG 20010904//EN"
 "http://www.w3.org/TR/2001/REC-SVG-20010904/DTD/svg10.dtd">
<svg version="1.0" xmlns="http://www.w3.org/2000/svg"
 width="3600.000000pt" height="2400.000000pt" viewBox="0 0 3600.000000 2400.000000"
 preserveAspectRatio="xMidYMid meet">

<g transform="translate(0.000000,2400.000000) scale(0.100000,-0.100000)"
fill="#000000" stroke="none">
<path d="M23815 22024 c-104 -21 -138 -31 -221 -64 -187 -77 -301 -184 -398
-377 -63 -127 -96 -244 -96 -347 0 -95 -25 -364 -39 -428 -6 -23 -27 -115 -47
-203 -50 -220 -42 -210 -93 -132 -73 112 -163 188 -305 257 -189 92 -230 94
-416 20 -84 -34 -448 -214 -463 -229 -5 -5 -50 33 -100 83 -51 51 -122 114
-159 140 -83 59 -348 183 -419 196 -67 13 -276 13 -359 0 -175 -28 -441 -138
-564 -234 -155 -120 -300 -252 -356 -324 -33 -42 -87 -111 -120 -152 -34 -41
-81 -109 -106 -150 -25 -41 -106 -172 -181 -290 -75 -118 -154 -244 -176 -280
-59 -97 -120 -164 -208 -230 -102 -77 -138 -95 -292 -145 l-127 -42 59 -22
c68 -25 140 -76 262 -188 106 -96 146 -118 329 -181 80 -28 170 -61 201 -75
170 -76 353 -120 549 -132 63 -3 121 -11 128 -17 7 -6 12 -25 10 -41 -3 -26
-18 -41 -108 -103 -148 -104 -272 -217 -605 -550 -340 -341 -373 -379 -476
-533 -42 -64 -103 -151 -136 -194 -33 -42 -87 -130 -120 -195 -58 -112 -80
-163 -153 -367 -77 -215 -410 -793 -543 -944 -157 -178 -198 -222 -272 -296
-92 -91 -150 -139 -285 -235 -176 -126 -306 -179 -585 -240 -77 -16 -192 -47
-255 -69 -63 -21 -167 -51 -230 -65 -63 -15 -167 -40 -230 -57 -63 -17 -182
-49 -265 -70 -191 -49 -347 -126 -635 -311 -78 -50 -267 -158 -277 -158 -2 0
-30 -17 -61 -38 -55 -37 -241 -150 -272 -164 -51 -25 -343 -219 -490 -327 -94
-69 -349 -318 -399 -391 -22 -30 -51 -66 -66 -80 -36 -34 -72 -86 -135 -200
-29 -52 -67 -111 -84 -130 -43 -48 -137 -196 -239 -375 -47 -82 -101 -175
-119 -205 -52 -86 -60 -116 -62 -230 -1 -124 4 -136 114 -275 110 -137 111
-139 103 -294 -6 -122 -5 -133 14 -154 13 -14 32 -72 52 -162 18 -77 42 -167
53 -200 10 -33 23 -79 28 -102 5 -23 16 -59 25 -80 25 -60 37 -206 41 -503 4
-240 2 -288 -15 -380 -11 -58 -22 -127 -26 -155 -7 -52 -101 -352 -116 -371
-5 -6 -27 -64 -49 -130 -23 -65 -81 -202 -131 -305 -49 -102 -89 -190 -89
-197 0 -7 -28 -43 -62 -80 -80 -88 -133 -177 -160 -272 -22 -75 -22 -76 -160
-214 -76 -76 -138 -142 -138 -147 0 -22 -79 -93 -152 -136 -81 -49 -129 -93
-290 -272 -67 -76 -110 -113 -151 -135 -34 -19 -60 -39 -63 -52 -7 -27 22
-242 42 -309 8 -27 21 -95 30 -150 22 -141 43 -247 54 -270 5 -11 30 -76 54
-145 24 -69 62 -159 85 -200 23 -41 64 -122 93 -180 49 -99 192 -329 235 -377
11 -12 58 -64 105 -115 111 -121 124 -137 190 -238 55 -83 194 -228 317 -330
161 -133 160 -132 291 -305 30 -38 56 -72 59 -75 4 -3 19 -23 36 -45 16 -22
111 -121 210 -220 170 -169 287 -295 324 -347 8 -13 28 -36 42 -53 40 -44 60
-68 94 -111 36 -46 151 -169 218 -233 27 -25 60 -56 73 -68 12 -13 27 -23 33
-23 5 0 11 -3 13 -7 2 -5 39 -35 83 -68 44 -33 82 -62 85 -65 3 -3 28 -24 55
-45 28 -22 57 -48 66 -57 9 -10 21 -18 27 -18 6 0 12 -3 14 -8 5 -12 204 -152
217 -152 6 0 11 -4 11 -10 0 -5 7 -10 15 -10 8 0 15 -4 15 -10 0 -5 7 -10 15
-10 8 0 15 -4 15 -10 0 -5 7 -10 15 -10 8 0 15 -4 15 -10 0 -5 7 -10 15 -10 8
0 15 -4 15 -10 0 -5 7 -10 15 -10 8 0 15 -4 15 -10 0 -5 5 -10 11 -10 6 0 16
-6 23 -12 7 -7 28 -24 46 -38 19 -14 45 -36 60 -50 14 -14 48 -43 75 -65 28
-22 52 -42 55 -45 4 -4 39 -24 95 -54 11 -6 22 -13 25 -16 3 -3 32 -18 65 -34
130 -61 150 -71 155 -76 3 -3 37 -21 75 -40 39 -19 71 -38 73 -42 2 -5 9 -8
16 -8 7 0 35 -12 62 -26 27 -15 83 -40 124 -56 100 -40 163 -69 435 -204 213
-105 239 -115 355 -140 84 -18 177 -29 285 -35 182 -9 288 -19 530 -48 250
-30 446 -25 725 19 74 12 182 28 238 35 57 8 120 19 140 24 21 6 71 15 112 21
41 7 109 20 150 30 102 26 205 47 329 70 68 13 129 31 180 55 42 20 105 46
141 57 140 43 474 226 620 340 19 15 82 65 140 110 58 45 130 104 160 132 31
28 94 79 140 114 99 74 140 107 195 157 123 112 214 196 269 247 33 31 99 89
146 129 47 39 153 142 235 228 339 355 431 454 458 493 15 23 51 67 80 97 69
72 142 172 177 241 15 30 53 87 84 125 56 70 228 399 277 530 12 33 39 98 60
145 21 47 65 148 98 225 32 77 79 183 102 235 24 52 82 210 130 350 48 140
101 293 118 339 37 98 45 130 65 266 8 55 22 117 31 139 44 105 86 283 100
424 17 171 28 238 48 308 8 29 18 112 21 185 4 74 16 213 26 309 36 340 42
436 37 530 -4 52 -11 196 -16 320 -6 124 -15 243 -20 265 -5 22 -15 78 -20
125 -16 126 -58 340 -112 565 -26 110 -53 227 -59 260 -6 33 -18 82 -26 108
-7 27 -18 76 -24 110 -6 34 -24 115 -41 180 -16 65 -34 150 -39 191 -5 40 -23
121 -39 181 -17 59 -37 145 -45 190 -15 86 -80 306 -100 340 -18 30 -61 156
-96 284 -18 63 -47 154 -66 201 -79 205 -144 666 -165 1165 -11 255 -10 281
10 465 24 215 41 307 76 420 13 41 27 93 30 115 31 180 110 421 186 563 66
125 200 463 225 567 11 48 80 220 141 350 232 500 314 912 268 1351 -26 253
-72 416 -177 629 -88 177 -134 242 -260 365 -59 58 -108 113 -108 121 0 17 6
27 107 170 33 47 79 117 101 155 22 38 64 101 94 141 85 116 136 192 192 288
68 118 342 670 401 810 67 157 152 421 176 550 11 61 35 164 54 230 18 67 36
145 40 175 4 30 27 141 51 245 70 306 78 381 69 655 -9 294 -9 294 -143 392
-110 80 -190 109 -296 107 -39 -1 -80 -3 -91 -5z m-1310 -1545 c256 -78 292
-96 326 -166 21 -43 24 -61 23 -163 -1 -129 -7 -147 -126 -370 -30 -58 -102
-195 -158 -305 -87 -168 -234 -437 -287 -523 -14 -23 -14 -23 -41 -4 -45 32
-203 90 -277 103 -88 15 -388 5 -495 -16 -105 -21 -106 -21 -73 23 77 100 242
381 285 483 17 41 41 125 54 187 26 131 55 224 94 302 15 30 30 66 33 80 9 36
10 199 2 241 -6 33 -4 37 17 41 12 3 75 20 138 38 148 42 305 78 350 79 19 1
80 -13 135 -30z"/>
<path d="M34700 11291 c0 -4 19 -21 43 -36 52 -35 120 -89 219 -177 42 -37 82
-68 89 -68 17 0 -11 30 -116 120 -99 85 -212 170 -226 170 -5 0 -9 -4 -9 -9z"/>
</g>
</svg>
