<svg width="432" height="443" viewBox="0 0 432 443" fill="none" xmlns="http://www.w3.org/2000/svg">
<rect x="268.96" y="87.3145" width="4" height="153.815" transform="rotate(20.9354 268.96 87.3145)" fill="black"/>
<rect y="232" width="432" height="166" fill="#A35DDA"/>
<ellipse cx="347.04" cy="388.757" rx="60.9883" ry="54.2429" fill="#120202"/>
<ellipse cx="346.5" cy="388.757" rx="32.3832" ry="28.3656" fill="white"/>
<ellipse cx="82.5771" cy="388.757" rx="60.9883" ry="54.2429" fill="#120202"/>
<ellipse cx="82.0374" cy="388.757" rx="32.3832" ry="28.3656" fill="white"/>
<ellipse cx="273" cy="82.5" rx="11" ry="9.5" fill="black"/>
<path d="M262.94 65.6731L240.333 35.2192L250.168 29.9604L262.94 65.6731Z" fill="#EAFC7E"/>
<path d="M256.698 48.1471L234.091 17.6933L243.926 12.4345L256.698 48.1471Z" fill="#EAFC7E"/>
<path d="M254.801 94.3187L223.254 115.373L218.494 105.288L254.801 94.3187Z" fill="#EAFC7E"/>
<path d="M236.984 99.6756L205.437 120.73L200.677 110.644L236.984 99.6756Z" fill="#EAFC7E"/>
<path d="M252.955 77.4157L215.201 73.7869L217.888 62.9629L252.955 77.4157Z" fill="#EAFC7E"/>
<path d="M235.763 70.3035L198.01 66.6747L200.697 55.8508L235.763 70.3035Z" fill="#EAFC7E"/>
<path d="M284.952 98.2164L313.733 122.918L305.304 130.222L284.952 98.2164Z" fill="#EAFC7E"/>
<path d="M294.914 113.929L323.695 138.631L315.266 145.934L294.914 113.929Z" fill="#EAFC7E"/>
<path d="M281.903 65.2985L291.772 28.6772L301.997 33.1309L281.903 65.2985Z" fill="#EAFC7E"/>
<path d="M291.781 49.5327L301.65 12.9114L311.874 17.365L291.781 49.5327Z" fill="#EAFC7E"/>
<path d="M294.783 82.7115L331.342 72.6143L332.698 83.6842L294.783 82.7115Z" fill="#EAFC7E"/>
<path d="M313.381 83.2132L349.94 73.1161L351.296 84.186L313.381 83.2132Z" fill="#EAFC7E"/>
</svg>
